<svg width="1940" height="1110" viewBox="0 0 1940 1110" fill="none" xmlns="http://www.w3.org/2000/svg">
<path fill-rule="evenodd" clip-rule="evenodd" d="M7.63982 6.83481C-7.73858 6.83481 4.85511 897.957 4.85511 913.335L7.6397 1091.72H7.08269C5.85242 1091.72 4.85515 1092.72 4.85515 1093.95L24.6397 1097.83C24.6397 1099.06 25.6369 1100.06 26.8672 1100.06H27.4242V1107.02H26.8672C25.6369 1107.02 24.6397 1108.02 24.6397 1109.25L47.6396 1093.95C49.8672 1090.67 80.2697 1093.95 81.5 1093.95H104L127.14 1089.33C127.14 1104.71 457.761 1109.25 473.14 1109.25L943.14 1088.66C958.519 1088.66 1615.64 1104.03 1615.64 1088.66L1881.58 1091.72C1883.27 1091.72 1884.64 1090.35 1884.64 1088.66V1050.79C1884.64 1049.1 1883.27 1047.72 1881.58 1047.72L1939.14 6.83481C1939.14 -8.54359 786.019 6.83493 770.64 6.83493L7.63982 6.83481ZM882.545 318.96H908.162V321.745C908.162 327.896 913.149 332.883 919.3 332.883H1019.54C1025.69 332.883 1030.68 327.896 1030.68 321.745V318.96H1055.74C1065.58 318.96 1073.56 326.939 1073.56 336.781V753.343C1073.56 763.186 1065.58 771.164 1055.74 771.164H882.545C872.703 771.164 864.724 763.186 864.724 753.343V336.781C864.724 326.939 872.703 318.96 882.545 318.96Z" fill="white"/>
</svg>
