<svg width="2123" height="1793" viewBox="0 0 2123 1793" fill="none" xmlns="http://www.w3.org/2000/svg">
<g filter="url(#filter0_d_12_1185)">
<ellipse cx="1061.34" cy="1703.87" rx="776.903" ry="6.13883" fill="#C4C4C4" fill-opacity="0.01"/>
</g>
<rect width="2122.67" height="1484.23" rx="35" fill="#F1F1F1"/>
<path d="M0 1272.78H2122.67V1449.23C2122.67 1468.56 2107 1484.23 2087.67 1484.23H35C15.6701 1484.23 0 1468.56 0 1449.23V1272.78Z" fill="#F5F5F5"/>
<g filter="url(#filter1_d_12_1185)">
<path d="M703.92 1745.47C700.153 1741.71 700.51 1730.47 708.695 1724.33H1413.98C1422.16 1730.47 1422.84 1739.34 1418.75 1745.47C1414.52 1751.82 1393.52 1753.2 1382.6 1752.98H740.071C729.158 1753.2 710.058 1751.61 703.92 1745.47Z" fill="url(#paint0_linear_12_1185)"/>
</g>
<path d="M819.876 1484.23C819.876 1484.23 798.731 1636.34 792.591 1652.71C786.451 1669.08 756.442 1686.81 750.984 1690.91C745.527 1695 726.428 1708.64 718.244 1714.78C710.059 1720.92 699.955 1727.99 703.92 1735.92C707.33 1742.75 729.157 1743.66 740.071 1743.43H1100.9H1382.6C1393.52 1743.66 1415.34 1742.75 1418.75 1735.92C1422.72 1727.99 1412.61 1720.92 1404.43 1714.78C1396.24 1708.64 1377.15 1695 1371.69 1690.91C1366.23 1686.81 1336.22 1669.08 1330.08 1652.71C1323.94 1636.34 1302.8 1484.23 1302.8 1484.23H1100.9H819.876Z" fill="#F5F5F5"/>
<path d="M819.876 1484.23C819.876 1484.23 798.731 1636.34 792.591 1652.71C786.451 1669.08 756.442 1686.81 750.984 1690.91C745.527 1695 726.428 1708.64 718.244 1714.78C710.059 1720.92 699.955 1727.99 703.92 1735.92C707.33 1742.75 729.157 1743.66 740.071 1743.43H1100.9H1382.6C1393.52 1743.66 1415.34 1742.75 1418.75 1735.92C1422.72 1727.99 1412.61 1720.92 1404.43 1714.78C1396.24 1708.64 1377.15 1695 1371.69 1690.91C1366.23 1686.81 1336.22 1669.08 1330.08 1652.71C1323.94 1636.34 1302.8 1484.23 1302.8 1484.23H1100.9H819.876Z" fill="url(#paint1_radial_12_1185)"/>
<path d="M819.876 1484.23C819.876 1484.23 798.731 1636.34 792.591 1652.71C786.451 1669.08 756.442 1686.81 750.984 1690.91C745.527 1695 726.428 1708.64 718.244 1714.78C710.059 1720.92 699.955 1727.99 703.92 1735.92C707.33 1742.75 729.157 1743.66 740.071 1743.43H1100.9H1382.6C1393.52 1743.66 1415.34 1742.75 1418.75 1735.92C1422.72 1727.99 1412.61 1720.92 1404.43 1714.78C1396.24 1708.64 1377.15 1695 1371.69 1690.91C1366.23 1686.81 1336.22 1669.08 1330.08 1652.71C1323.94 1636.34 1302.8 1484.23 1302.8 1484.23H1100.9H819.876Z" fill="url(#paint2_linear_12_1185)"/>
<path d="M819.876 1484.23C819.876 1484.23 798.731 1636.34 792.591 1652.71C786.451 1669.08 756.442 1686.81 750.984 1690.91C745.527 1695 726.428 1708.64 718.244 1714.78C710.059 1720.92 699.955 1727.99 703.92 1735.92C707.33 1742.75 729.157 1743.66 740.071 1743.43H1100.9H1382.6C1393.52 1743.66 1415.34 1742.75 1418.75 1735.92C1422.72 1727.99 1412.61 1720.92 1404.43 1714.78C1396.24 1708.64 1377.15 1695 1371.69 1690.91C1366.23 1686.81 1336.22 1669.08 1330.08 1652.71C1323.94 1636.34 1302.8 1484.23 1302.8 1484.23H1100.9H819.876Z" fill="url(#paint3_linear_12_1185)"/>
<rect x="72.4375" y="79.2585" width="1977.8" height="1115.63" stroke="#E1E1E1" stroke-width="3"/>
<path d="M1101.82 1397.23C1100.28 1400.86 1098.45 1404.19 1096.34 1407.26C1093.45 1411.44 1091.09 1414.33 1089.27 1415.93C1086.45 1418.57 1083.43 1419.92 1080.19 1420C1077.87 1420 1075.06 1419.33 1071.8 1417.96C1068.53 1416.61 1065.52 1415.93 1062.77 1415.93C1059.89 1415.93 1056.79 1416.61 1053.48 1417.96C1050.17 1419.33 1047.5 1420.04 1045.46 1420.11C1042.35 1420.24 1039.26 1418.85 1036.17 1415.93C1034.2 1414.19 1031.73 1411.19 1028.78 1406.95C1025.61 1402.42 1023 1397.16 1020.96 1391.17C1018.78 1384.7 1017.68 1378.44 1017.68 1372.37C1017.68 1365.43 1019.16 1359.43 1022.12 1354.41C1024.44 1350.38 1027.54 1347.19 1031.41 1344.86C1035.28 1342.52 1039.47 1341.33 1043.97 1341.26C1046.44 1341.26 1049.67 1342.03 1053.69 1343.55C1057.7 1345.08 1060.27 1345.86 1061.4 1345.86C1062.24 1345.86 1065.1 1344.95 1069.95 1343.15C1074.53 1341.47 1078.4 1340.78 1081.56 1341.05C1090.15 1341.75 1096.6 1345.19 1100.89 1351.39C1093.21 1356.11 1089.41 1362.73 1089.49 1371.23C1089.56 1377.84 1091.92 1383.35 1096.56 1387.72C1098.66 1389.75 1101.01 1391.31 1103.63 1392.43C1103.06 1394.1 1102.46 1395.7 1101.82 1397.23V1397.23ZM1082.14 1318.51C1082.14 1323.7 1080.27 1328.54 1076.56 1333.02C1072.07 1338.35 1066.65 1341.42 1060.77 1340.94C1060.69 1340.32 1060.65 1339.66 1060.65 1338.97C1060.65 1334 1062.78 1328.67 1066.57 1324.31C1068.46 1322.11 1070.86 1320.28 1073.78 1318.81C1076.69 1317.37 1079.44 1316.57 1082.03 1316.44C1082.1 1317.13 1082.14 1317.82 1082.14 1318.51V1318.51Z" fill="#C8C8C8"/>
<defs>
<filter id="filter0_d_12_1185" x="201.853" y="1615.15" width="1718.97" height="177.438" filterUnits="userSpaceOnUse" color-interpolation-filters="sRGB">
<feFlood flood-opacity="0" result="BackgroundImageFix"/>
<feColorMatrix in="SourceAlpha" type="matrix" values="0 0 0 0 0 0 0 0 0 0 0 0 0 0 0 0 0 0 127 0" result="hardAlpha"/>
<feOffset/>
<feGaussianBlur stdDeviation="41.29"/>
<feColorMatrix type="matrix" values="0 0 0 0 0 0 0 0 0 0 0 0 0 0 0 0 0 0 0.46 0"/>
<feBlend mode="normal" in2="BackgroundImageFix" result="effect1_dropShadow_12_1185"/>
<feBlend mode="normal" in="SourceGraphic" in2="effect1_dropShadow_12_1185" result="shape"/>
</filter>
<filter id="filter1_d_12_1185" x="696.614" y="1722.33" width="729.586" height="38.6709" filterUnits="userSpaceOnUse" color-interpolation-filters="sRGB">
<feFlood flood-opacity="0" result="BackgroundImageFix"/>
<feColorMatrix in="SourceAlpha" type="matrix" values="0 0 0 0 0 0 0 0 0 0 0 0 0 0 0 0 0 0 127 0" result="hardAlpha"/>
<feOffset dy="3"/>
<feGaussianBlur stdDeviation="2.5"/>
<feColorMatrix type="matrix" values="0 0 0 0 0 0 0 0 0 0 0 0 0 0 0 0 0 0 0.38 0"/>
<feBlend mode="normal" in2="BackgroundImageFix" result="effect1_dropShadow_12_1185"/>
<feBlend mode="normal" in="SourceGraphic" in2="effect1_dropShadow_12_1185" result="shape"/>
</filter>
<linearGradient id="paint0_linear_12_1185" x1="1061.34" y1="1743.43" x2="1061.34" y2="1755.02" gradientUnits="userSpaceOnUse">
<stop offset="0.474551" stop-color="#D4D4D4"/>
<stop offset="1" stop-color="#B4B4B4"/>
</linearGradient>
<radialGradient id="paint1_radial_12_1185" cx="0" cy="0" r="1" gradientUnits="userSpaceOnUse" gradientTransform="translate(1061.34 1684.09) rotate(90) scale(185.529 1229.55)">
<stop stop-color="#DBDBDB"/>
<stop offset="1" stop-color="white" stop-opacity="0"/>
</radialGradient>
<linearGradient id="paint2_linear_12_1185" x1="1061.34" y1="1484.23" x2="1061.34" y2="1743.46" gradientUnits="userSpaceOnUse">
<stop stop-color="white" stop-opacity="0"/>
<stop offset="0.541436" stop-color="white"/>
<stop offset="1" stop-color="white" stop-opacity="0"/>
</linearGradient>
<linearGradient id="paint3_linear_12_1185" x1="1061.34" y1="1484.23" x2="1061.34" y2="1665.67" gradientUnits="userSpaceOnUse">
<stop stop-color="#D7D7D7"/>
<stop offset="1" stop-color="white" stop-opacity="0"/>
</linearGradient>
</defs>
</svg>
