<svg width="398" height="819" viewBox="0 0 398 819" fill="none" xmlns="http://www.w3.org/2000/svg">
<g clip-path="url(#clip0_5073_14084)">
<path fill-rule="evenodd" clip-rule="evenodd" d="M48.1889 1.04443C21.5776 1.04443 0.00492537 22.6172 0.00492537 49.2285V148.969H-0.958755C-3.08766 148.969 -4.81348 150.695 -4.81348 152.824V211.609C-4.81348 213.738 -3.08766 215.463 -0.958755 215.463H0.00492537V227.509H-0.958755C-3.08766 227.509 -4.81348 229.235 -4.81348 231.364V288.221C-4.81348 290.35 -3.08766 292.076 -0.958755 292.076H0.00492537V770.061C0.00492537 796.673 21.5776 818.246 48.1889 818.246H349.821C376.432 818.246 398.005 796.673 398.005 770.061V257.865C400.932 257.865 403.305 255.492 403.305 252.565V187.035C403.305 184.108 400.932 181.735 398.005 181.735V49.2285C398.005 22.6172 376.432 1.04443 349.821 1.04443H48.1889ZM49.1526 18.3907H93.4819V23.2091C93.4819 33.8536 102.111 42.4827 112.756 42.4827H286.218C296.863 42.4827 305.492 33.8536 305.492 23.2091V18.3907H348.857C365.888 18.3907 379.695 32.1972 379.695 49.2285V770.061C379.695 787.093 365.888 800.899 348.857 800.899H49.1526C32.1214 800.899 18.3149 787.093 18.3149 770.061V49.2285C18.3149 32.1972 32.1214 18.3907 49.1526 18.3907Z" fill="#303030"/>
<rect opacity="0.4" x="161.903" y="18.3892" width="82.8765" height="7.70944" rx="3.85472" fill="#333333"/>
<rect opacity="0.5" x="258.268" y="13.5732" width="17.3462" height="17.3462" rx="8.67312" fill="#313131"/>
<rect opacity="0.5" x="262.12" y="17.4258" width="9.6368" height="9.6368" rx="4.8184" fill="white"/>
<rect opacity="0.5" x="115.642" y="18.3892" width="7.70944" height="7.70944" rx="3.85472" fill="#333333"/>
</g>
<defs>
<clipPath id="clip0_5073_14084">
<rect width="398" height="818.496" fill="white"/>
</clipPath>
</defs>
</svg>
