<svg width="230" height="473" viewBox="0 0 230 473" fill="none" xmlns="http://www.w3.org/2000/svg">
<g clip-path="url(#clip0_433_28125)">
<path fill-rule="evenodd" clip-rule="evenodd" d="M27.8483 0.601562C12.4699 0.601562 0.0032537 13.0682 0.0032537 28.4466V86.0858H-0.553647C-1.78392 86.0858 -2.78125 87.0832 -2.78125 88.3134V122.284C-2.78125 123.515 -1.78392 124.512 -0.553647 124.512H0.0032537V131.473H-0.553647C-1.78392 131.473 -2.78125 132.471 -2.78125 133.701V166.558C-2.78125 167.788 -1.78392 168.786 -0.553647 168.786H0.0032537V445.008C0.0032537 460.387 12.4699 472.853 27.8483 472.853H202.158C217.537 472.853 230.003 460.387 230.003 445.008V149.016C231.695 149.016 233.066 147.644 233.066 145.953V108.083C233.066 106.392 231.695 105.02 230.003 105.02V28.4466C230.003 13.0682 217.537 0.601562 202.158 0.601562H27.8483ZM28.4052 10.6258H54.0226V13.4103C54.0226 19.5616 59.0093 24.5483 65.1606 24.5483H165.403C171.554 24.5483 176.541 19.5616 176.541 13.4103V10.6258H201.601C211.443 10.6258 219.422 18.6044 219.422 28.4466V445.008C219.422 454.851 211.443 462.829 201.601 462.829H28.4052C18.563 462.829 10.5844 454.851 10.5844 445.008V28.4466C10.5844 18.6044 18.563 10.6258 28.4052 10.6258Z" fill="#303030"/>
<rect opacity="0.4" x="93.5625" y="10.625" width="47.8935" height="4.45521" rx="2.2276" fill="#333333"/>
<rect opacity="0.5" x="149.25" y="7.84375" width="10.0242" height="10.0242" rx="5.01211" fill="#313131"/>
<rect opacity="0.5" x="151.477" y="10.0703" width="5.56901" height="5.56901" rx="2.7845" fill="white"/>
<rect opacity="0.5" x="66.8281" y="10.625" width="4.45521" height="4.45521" rx="2.2276" fill="#333333"/>
</g>
<defs>
<clipPath id="clip0_433_28125">
<rect width="230" height="473" fill="white"/>
</clipPath>
</defs>
</svg>
