<svg width="1920" height="1080" viewBox="0 0 1920 1080" fill="none" xmlns="http://www.w3.org/2000/svg">
<g clip-path="url(#clip0_1_2)">
<path fill-rule="evenodd" clip-rule="evenodd" d="M-927 -1560C-942.378 -1560 -1467.72 2590.67 -1467.72 2606.05L-1537.22 2895.5H-1537.77C-1539 2895.5 -1540 2896.5 -1540 2897.73V2931.7C-1540 2932.93 -1539 2933.93 -1537.77 2933.93H-1537.22V2940.89H-1537.77C-1539 2940.89 -1540 2941.88 -1540 2943.11V2975.97C-1540 2977.2 -1539 2978.2 -1537.77 2978.2H-1537.22L-1392.22 3228C-1392.22 3243.38 1332.53 4262.5 1347.9 4262.5L1822 4421.5C1837.38 4421.5 7799.5 904.757 7799.5 889.378L7345.44 464.433C7347.13 464.433 7348.5 463.061 7348.5 461.37V423.5C7348.5 421.809 7347.13 420.437 7345.44 420.437L5562 -1880.5C5562 -1895.88 1549.88 -3725 1534.5 -3725L-927 -1560ZM872.905 313.625H898.522V316.41C898.522 322.561 903.509 327.548 909.66 327.548H1009.9C1016.05 327.548 1021.04 322.561 1021.04 316.41V313.625H1046.1C1055.94 313.625 1063.92 321.604 1063.92 331.446V748.008C1063.92 757.851 1055.94 765.829 1046.1 765.829H872.905C863.063 765.829 855.084 757.851 855.084 748.008V331.446C855.084 321.604 863.063 313.625 872.905 313.625Z" fill="black"/>
</g>
<defs>
<clipPath id="clip0_1_2">
<rect width="1920" height="1080" fill="white"/>
</clipPath>
</defs>
</svg>
